<mxfile host="65bd71144e">
    <diagram id="BPyLvczg8ySOegagOHK9" name="Page-1">
        <mxGraphModel dx="368" dy="1663" grid="1" gridSize="10" guides="1" tooltips="1" connect="1" arrows="1" fold="1" page="1" pageScale="1" pageWidth="850" pageHeight="1100" math="0" shadow="0">
            <root>
                <mxCell id="0"/>
                <mxCell id="1" parent="0"/>
                <mxCell id="34" style="edgeStyle=none;html=1;exitX=0.5;exitY=1;exitDx=0;exitDy=0;" edge="1" parent="1" source="35">
                    <mxGeometry relative="1" as="geometry">
                        <mxPoint x="150" y="80" as="targetPoint"/>
                    </mxGeometry>
                </mxCell>
                <mxCell id="35" value="Wake Up" style="rounded=1;whiteSpace=wrap;html=1;fillColor=#dae8fc;strokeColor=#6c8ebf;fontStyle=1;textShadow=0;" vertex="1" parent="1">
                    <mxGeometry x="90" y="-30" width="120" height="60" as="geometry"/>
                </mxCell>
                <mxCell id="36" value="" style="edgeStyle=none;html=1;" edge="1" parent="1" source="37">
                    <mxGeometry relative="1" as="geometry">
                        <mxPoint x="150" y="190" as="targetPoint"/>
                    </mxGeometry>
                </mxCell>
                <mxCell id="37" value="Shower" style="rounded=1;whiteSpace=wrap;html=1;fillColor=#dae8fc;strokeColor=#6c8ebf;gradientColor=#66B2FF;fontStyle=1" vertex="1" parent="1">
                    <mxGeometry x="90" y="80" width="120" height="60" as="geometry"/>
                </mxCell>
                <mxCell id="38" value="" style="edgeStyle=none;html=1;" edge="1" parent="1" source="39">
                    <mxGeometry relative="1" as="geometry">
                        <mxPoint x="150" y="300" as="targetPoint"/>
                    </mxGeometry>
                </mxCell>
                <mxCell id="39" value="Get Kids Dressed" style="whiteSpace=wrap;html=1;rounded=1;fillColor=#66B2FF;fontStyle=1" vertex="1" parent="1">
                    <mxGeometry x="90" y="190" width="120" height="60" as="geometry"/>
                </mxCell>
                <mxCell id="40" value="" style="edgeStyle=none;html=1;" edge="1" parent="1" source="41" target="44">
                    <mxGeometry relative="1" as="geometry"/>
                </mxCell>
                <mxCell id="41" value="Make Breakfast" style="whiteSpace=wrap;html=1;rounded=1;fillColor=#66B2FF;gradientColor=#6666FF;fontStyle=1" vertex="1" parent="1">
                    <mxGeometry x="90" y="300" width="120" height="60" as="geometry"/>
                </mxCell>
                <mxCell id="42" value="Yes" style="edgeStyle=none;html=1;" edge="1" parent="1" source="44" target="46">
                    <mxGeometry x="-0.2444" relative="1" as="geometry">
                        <Array as="points">
                            <mxPoint x="70" y="440"/>
                            <mxPoint x="20" y="440"/>
                            <mxPoint x="20" y="520"/>
                        </Array>
                        <mxPoint as="offset"/>
                    </mxGeometry>
                </mxCell>
                <mxCell id="43" value="No" style="edgeStyle=none;html=1;" edge="1" parent="1" source="44" target="47">
                    <mxGeometry x="0.3016" relative="1" as="geometry">
                        <Array as="points">
                            <mxPoint x="270" y="440"/>
                            <mxPoint x="270" y="630"/>
                        </Array>
                        <mxPoint y="-1" as="offset"/>
                    </mxGeometry>
                </mxCell>
                <mxCell id="44" value="Is Homework Complete?" style="rhombus;whiteSpace=wrap;html=1;rounded=1;fillColor=#B266FF;fontStyle=3;fontSize=12;" vertex="1" parent="1">
                    <mxGeometry x="95" y="400" width="110" height="80" as="geometry"/>
                </mxCell>
                <mxCell id="45" value="" style="edgeStyle=none;html=1;" edge="1" parent="1" source="46" target="47">
                    <mxGeometry relative="1" as="geometry"/>
                </mxCell>
                <mxCell id="46" value="Quick Review" style="whiteSpace=wrap;html=1;rounded=1;fillColor=#6666FF;gradientColor=#B266FF;gradientDirection=north;fontStyle=1" vertex="1" parent="1">
                    <mxGeometry x="90" y="490" width="120" height="60" as="geometry"/>
                </mxCell>
                <mxCell id="47" value="Leave for School" style="whiteSpace=wrap;html=1;rounded=1;fillColor=#5959E2;fontStyle=1" vertex="1" parent="1">
                    <mxGeometry x="90" y="600" width="120" height="60" as="geometry"/>
                </mxCell>
            </root>
        </mxGraphModel>
    </diagram>
</mxfile>